# xmcd CD database file
#
# Track frame offsets:
#	150
#	18586
#	35921
#	50361
#	64742
#	79148
#	99806
#	120538
#	140036
#	159665
#	178757
#	195996
#
# Disc length: 2887 seconds
#
# Revision: 0
# Processed by: cddbd v1.5.2PL0 Copyright (c) Steve Scherf et al.
# Submitted via: cdripper 1,0,33,916
#
DISCID=a00b450c
DTITLE=Jim Brickman - Christmas Romance
DYEAR=2006
DGENRE=New Age
TTITLE0=I'll Be Home For Christmas
TTITLE1=Winter Wonderland
TTITLE2=O Tannenbaum (Remake)
TTITLE3=Snowflake
TTITLE4=Canon In G
TTITLE5=Silver Bells
TTITLE6=O Holy Night (Remake)
TTITLE7=The Holly And The Ivy
TTITLE8=Do You Hear What I Hear? (Remake)
TTITLE9=Greensleeves
TTITLE10=We Wish You A Merry Christmas
TTITLE11=Even Santa Fell In Love
EXTD=YEAR: 2006
EXTT0=
EXTT1=
EXTT2=
EXTT3=
EXTT4=
EXTT5=
EXTT6=
EXTT7=
EXTT8=
EXTT9=
EXTT10=
EXTT11=
PLAYORDER=
